<svg xmlns="http://www.w3.org/2000/svg" width="176" height="68" viewBox="0 0 176 68"><defs><style>.a{fill:#161735;}.b,.c{fill:#fff;}.b{font-size:10px;font-family:Gordita-Medium, Gordita;font-weight:500;}</style></defs><g transform="translate(-992 -771.532)"><rect class="a" width="176" height="68" rx="34" transform="translate(992 771.532)"/><g transform="translate(1033 790.41)"><g transform="translate(35.772 0)"><text class="b" transform="translate(0 12.905)"><tspan x="0" y="0" xml:space="preserve">Get it  from</tspan></text><text class="b" transform="translate(0 26.905)"><tspan x="0" y="0">Appstore</tspan></text></g><g transform="translate(0 1.122)"><path class="c" d="M53.553,139.272c-4.122-.024-7.531-8.438-7.531-12.723,0-7,5.251-8.532,7.275-8.532a8.371,8.371,0,0,1,2.745.675,6.135,6.135,0,0,0,1.567.449,4.877,4.877,0,0,0,1.124-.364,9.012,9.012,0,0,1,3.389-.819h.008a6.946,6.946,0,0,1,5.813,2.936l.424.637-.61.46a5.134,5.134,0,0,0-2.462,4.234,4.778,4.778,0,0,0,2.666,4.417c.382.23.777.467.777.985,0,.338-2.7,7.6-6.622,7.6a5.325,5.325,0,0,1-2.236-.543,4.534,4.534,0,0,0-1.99-.479,5.12,5.12,0,0,0-1.576.426,7.719,7.719,0,0,1-2.734.638Z" transform="translate(-46.022 -111.578)"/><path class="c" d="M260.357,0c.1,3.682-2.531,6.237-5.162,6.077C254.762,3.138,257.826,0,260.357,0Z" transform="translate(-243.842)"/></g></g></g></svg>