<svg xmlns="http://www.w3.org/2000/svg" width="176.821" height="68.008" viewBox="0 0 176.821 68.008"><defs><style>.a{fill:#161735;}.b,.c{fill:#fff;}.b{font-size:10px;font-family:Gordita-Medium, Gordita;font-weight:500;}</style></defs><g transform="translate(-792 -771.532)"><path class="a" d="M34,0H142.817a34,34,0,0,1,0,68.008H34A34,34,0,0,1,34,0Z" transform="translate(792 771.532)"/><g transform="translate(832 789.71)"><g transform="translate(37.815 -0.126)"><text class="b" transform="translate(0 12.948)"><tspan x="0" y="0" xml:space="preserve">Get it  from</tspan></text><text class="b" transform="translate(0 26.948)"><tspan x="0" y="0">Playstore</tspan></text></g><g transform="translate(0 2.821)"><path class="c" d="M1.073,22.1a2.419,2.419,0,0,0-.488,1.468V45.13a2.424,2.424,0,0,0,.424,1.379l11.734-12.24Zm0,0" transform="translate(-0.586 -21.122)"/><path class="c" d="M52.61,12.026l3.807-3.971L43.035.33A2.411,2.411,0,0,0,41.166.09Zm0,0" transform="translate(-39.377 0)"/><path class="c" d="M50.1,323.648,38.544,335.7a2.4,2.4,0,0,0,.765.126,2.433,2.433,0,0,0,1.219-.331l13.477-7.781Zm0,0" transform="translate(-36.871 -309.38)"/><path class="c" d="M333.149,203.111l-3.912-2.259-4.116,4.293,4.212,4.393,3.816-2.2a2.438,2.438,0,0,0,0-4.224Zm0,0" transform="translate(-310.815 -191.998)"/></g></g></g></svg>